<svg xmlns="http://www.w3.org/2000/svg" viewBox="0 0 800 600" fill="none">
  
  <rect width="800" height="600" fill="#050608"></rect>
  
  <g opacity="0.06" stroke="#8b94a3" stroke-width="0.5">
    <path d="M0 100 H800 M0 200 H800 M0 300 H800 M0 400 H800 M0 500 H800"></path>
    <path d="M100 0 V600 M200 0 V600 M300 0 V600 M400 0 V600 M500 0 V600 M600 0 V600 M700 0 V600"></path>
  </g>
  
  <g fill="#e8eaef">
    <circle cx="80" cy="120" r="0.8"></circle>
    <circle cx="160" cy="60" r="1.2" opacity="0.7"></circle>
    <circle cx="220" cy="180" r="0.6"></circle>
    <circle cx="320" cy="80" r="1" opacity="0.8"></circle>
    <circle cx="400" cy="140" r="0.7"></circle>
    <circle cx="500" cy="40" r="1.1" opacity="0.6"></circle>
    <circle cx="580" cy="160" r="0.6"></circle>
    <circle cx="640" cy="90" r="0.9"></circle>
    <circle cx="720" cy="200" r="1.2" opacity="0.7"></circle>
    <circle cx="60" cy="280" r="0.8"></circle>
    <circle cx="180" cy="340" r="0.6"></circle>
    <circle cx="260" cy="420" r="1" opacity="0.8"></circle>
    <circle cx="380" cy="380" r="0.7"></circle>
    <circle cx="460" cy="460" r="0.9"></circle>
    <circle cx="560" cy="320" r="0.6"></circle>
    <circle cx="660" cy="400" r="1.1" opacity="0.7"></circle>
    <circle cx="740" cy="480" r="0.7"></circle>
    <circle cx="120" cy="520" r="0.8"></circle>
    <circle cx="280" cy="540" r="0.6"></circle>
    <circle cx="440" cy="560" r="1" opacity="0.6"></circle>
    <circle cx="600" cy="500" r="0.7"></circle>
  </g>
  
  <defs>
    <radialGradient id="planet" cx="0.3" cy="0.3" r="0.9">
      <stop offset="0" stop-color="#1f242e"></stop>
      <stop offset="0.6" stop-color="#0f1218"></stop>
      <stop offset="1" stop-color="#050608"></stop>
    </radialGradient>
    <linearGradient id="atmo" x1="0" y1="0" x2="1" y2="0">
      <stop offset="0" stop-color="#00e89a" stop-opacity="0"></stop>
      <stop offset="0.5" stop-color="#00e89a" stop-opacity="0.18"></stop>
      <stop offset="1" stop-color="#00e89a" stop-opacity="0"></stop>
    </linearGradient>
  </defs>
  <circle cx="640" cy="720" r="320" fill="url(#planet)"></circle>
  <ellipse cx="640" cy="408" rx="320" ry="6" fill="url(#atmo)"></ellipse>
  
  <ellipse cx="400" cy="300" rx="380" ry="80" stroke="#00e89a" stroke-width="0.6" opacity="0.35" transform="rotate(-12 400 300)"></ellipse>
  <circle cx="120" cy="240" r="2.5" fill="#00e89a"></circle>
  <circle cx="120" cy="240" r="6" fill="#00e89a" opacity="0.25"></circle>
</svg>