<svg xmlns="http://www.w3.org/2000/svg" viewBox="0 0 400 400" fill="none">
  
  <rect width="400" height="400" fill="#0a0c10"></rect>
  
  <line x1="40" y1="340" x2="360" y2="340" stroke="#2a303c" stroke-width="1" stroke-dasharray="2 4"></line>
  
  <g stroke="#e8eaef" stroke-width="1.4" fill="none" stroke-linecap="round">
    <circle cx="140" cy="120" r="22"></circle>
    <line x1="140" y1="142" x2="140" y2="240"></line>
    <line x1="140" y1="170" x2="100" y2="210"></line>
    <line x1="140" y1="170" x2="180" y2="210"></line>
    <line x1="140" y1="240" x2="115" y2="320"></line>
    <line x1="140" y1="240" x2="165" y2="320"></line>
  </g>
  
  <g stroke="#00e89a" stroke-width="1.2" fill="none" stroke-linecap="round" opacity="0.9">
    <circle cx="260" cy="120" r="22" stroke-dasharray="3 2"></circle>
    <line x1="260" y1="142" x2="260" y2="240" stroke-dasharray="3 2"></line>
    <line x1="260" y1="170" x2="220" y2="210" stroke-dasharray="3 2"></line>
    <line x1="260" y1="170" x2="300" y2="210" stroke-dasharray="3 2"></line>
    <line x1="260" y1="240" x2="235" y2="320" stroke-dasharray="3 2"></line>
    <line x1="260" y1="240" x2="285" y2="320" stroke-dasharray="3 2"></line>
    
    <circle cx="260" cy="120" r="2" fill="#00e89a"></circle>
    <circle cx="260" cy="170" r="2" fill="#00e89a"></circle>
    <circle cx="220" cy="210" r="2" fill="#00e89a"></circle>
    <circle cx="300" cy="210" r="2" fill="#00e89a"></circle>
    <circle cx="260" cy="240" r="2" fill="#00e89a"></circle>
  </g>
  
  <g stroke="#00e89a" stroke-width="0.6" opacity="0.45">
    <line x1="162" y1="120" x2="238" y2="120" stroke-dasharray="2 3"></line>
    <line x1="162" y1="240" x2="238" y2="240" stroke-dasharray="2 3"></line>
  </g>
  
  <defs>
    <radialGradient id="glow" cx="0.65" cy="0.45" r="0.45">
      <stop offset="0" stop-color="#00e89a" stop-opacity="0.18"></stop>
      <stop offset="1" stop-color="#00e89a" stop-opacity="0"></stop>
    </radialGradient>
  </defs>
  <rect width="400" height="400" fill="url(#glow)"></rect>
</svg>